<svg width="30" height="45" viewBox="0 0 30 45" fill="none" xmlns="http://www.w3.org/2000/svg">
<path d="M0.570459 31.8296H5.70458C5.70458 33.2301 6.08489 34.5245 6.8455 35.7128C7.60611 36.9435 8.68365 37.9196 10.0781 38.6411C11.4726 39.405 13.1205 39.787 15.0221 39.787C16.501 39.787 17.9589 39.4262 19.3956 38.7048C20.8323 37.9833 22.0155 36.8374 22.9451 35.2672C23.917 33.7393 24.4029 31.7447 24.4029 29.2832V0.636593H29.4737V29.2832C29.4737 32.6359 28.7765 35.4369 27.382 37.6862C25.9876 39.9779 24.1917 41.6967 21.9943 42.8426C19.797 43.9885 17.4729 44.5614 15.0221 44.5614C12.1909 44.5614 9.67667 44.0309 7.47934 42.9699C5.32428 41.9089 3.63403 40.4023 2.4086 38.4501C1.18317 36.5404 0.570459 34.3335 0.570459 31.8296ZM0 15.2782C0 12.0952 0.654971 9.37912 1.96491 7.12982C3.27485 4.83809 5.02849 3.07686 7.22581 1.84612C9.42313 0.615372 11.8317 0 14.4516 0C16.9025 0 19.0364 0.615372 20.8534 1.84612C22.6704 3.07686 24.086 4.83809 25.1002 7.12982C26.1566 9.37912 26.6848 12.0952 26.6848 15.2782C26.6848 18.4187 26.1566 21.1348 25.1002 23.4266C24.086 25.7183 22.6704 27.4795 20.8534 28.7103C19.0364 29.941 16.9025 30.5564 14.4516 30.5564C11.8317 30.5564 9.42313 29.941 7.22581 28.7103C5.02849 27.4795 3.27485 25.7183 1.96491 23.4266C0.654971 21.1348 0 18.4187 0 15.2782ZM5.13413 15.2782C5.13413 17.5275 5.57782 19.4373 6.4652 21.0075C7.39483 22.5778 8.62026 23.7661 10.1415 24.5724C11.6627 25.3788 13.3107 25.782 15.0855 25.782C16.5644 25.782 18.0223 25.3788 19.459 24.5724C20.8957 23.7661 22.0789 22.5778 23.0085 21.0075C23.9381 19.4373 24.4029 17.5275 24.4029 15.2782C24.4029 13.5806 24.1283 12.0952 23.5789 10.8221C23.0296 9.50643 22.2901 8.40301 21.3605 7.51178C20.4731 6.62055 19.4801 5.94152 18.3814 5.47469C17.2828 5.00785 16.1841 4.77444 15.0855 4.77444C13.3107 4.77444 11.6627 5.17761 10.1415 5.98396C8.62026 6.79031 7.39483 7.97861 6.4652 9.54887C5.57782 11.1191 5.13413 13.0289 5.13413 15.2782Z" fill="white"/>
</svg>
