<svg width="31" height="45" viewBox="0 0 31 45" fill="none" xmlns="http://www.w3.org/2000/svg">
<path d="M29.4648 32.2682H24.3306C24.3306 33.6687 23.9503 34.9631 23.1897 36.1514C22.4291 37.3821 21.3516 38.3582 19.9571 39.0797C18.5627 39.8436 16.9147 40.2256 15.0131 40.2256C13.5342 40.2256 12.0763 39.8648 10.6396 39.1434C9.20292 38.4219 8.01975 37.276 7.09011 35.7058C6.11822 34.178 5.63228 32.1833 5.63228 29.7218V1.0752H0.561535V29.7218C0.561535 33.0745 1.25876 35.8755 2.65321 38.1248C4.04767 40.4165 5.84356 42.1353 8.04088 43.2812C10.2382 44.4271 12.5623 45 15.0131 45C17.8443 45 20.3586 44.4695 22.5559 43.4085C24.7109 42.3475 26.4012 40.8409 27.6266 38.8887C28.852 36.979 29.4648 34.7721 29.4648 32.2682ZM30.0352 15.7168C30.0352 12.5338 29.3802 9.81772 28.0703 7.56843C26.7604 5.2767 25.0067 3.51546 22.8094 2.28472C20.6121 1.05397 18.2035 0.438602 15.5836 0.438602C13.1327 0.438602 10.9988 1.05397 9.18179 2.28472C7.36478 3.51546 5.9492 5.2767 4.93505 7.56843C3.87864 9.81772 3.35044 12.5338 3.35044 15.7168C3.35044 18.8573 3.87864 21.5734 4.93505 23.8652C5.9492 26.1569 7.36478 27.9181 9.18179 29.1489C10.9988 30.3796 13.1327 30.995 15.5836 30.995C18.2035 30.995 20.6121 30.3796 22.8094 29.1489C25.0067 27.9181 26.7604 26.1569 28.0703 23.8652C29.3802 21.5734 30.0352 18.8573 30.0352 15.7168ZM24.9011 15.7168C24.9011 17.9661 24.4574 19.8759 23.57 21.4461C22.6404 23.0164 21.415 24.2047 19.8937 25.011C18.3725 25.8174 16.7245 26.2206 14.9498 26.2206C13.4708 26.2206 12.013 25.8174 10.5762 25.011C9.13954 24.2047 7.95636 23.0164 7.02673 21.4461C6.09709 19.8759 5.63228 17.9661 5.63228 15.7168C5.63228 14.0192 5.90694 12.5338 6.45627 11.2607C7.0056 9.94503 7.74508 8.84161 8.67472 7.95038C9.5621 7.05915 10.5551 6.38012 11.6538 5.91329C12.7524 5.44646 13.8511 5.21304 14.9498 5.21304C16.7245 5.21304 18.3725 5.61621 19.8937 6.42256C21.415 7.22891 22.6404 8.41721 23.57 9.98747C24.4574 11.5577 24.9011 13.4675 24.9011 15.7168Z" fill="white"/>
</svg>
